<svg version="1.1" xmlns="http://www.w3.org/2000/svg" viewBox="-12.750132017355583 -1.971813941496265 25.50026403471116 3.9436278829925304" fill="none" stroke="black" stroke-width="0.6%" vector-effect="non-scaling-stroke">
    <path d="M -11.1758 0.43263 L -1.7611 0.92484 A 3 0.11414 180 0 0 2.42982 0.94996 L 10.51539 0.72609 A 3 0.11414 180 0 0 11.75013 0.6338" />
    <path d="M -11.1758 -0.56664 L -1.7611 -0.07444 A 3 0.11414 180 0 0 2.42982 -0.04931 L 10.51539 -0.27319 A 3 0.11414 180 0 0 11.75013 -0.36547 L 11.75013 0.6338" />
    <path d="M 11.75013 -0.36547 A 3 0.11414 180 0 0 11.1758 -0.43263 L 1.7611 -0.92484 A 3 0.11414 180 0 0 -2.42982 -0.94996 L -10.51539 -0.72609 A 3 0.11414 180 0 0 -11.75013 -0.6338 L -11.75013 0.36547 A 3 0.11414 180 0 0 -11.1758 0.43263 L -11.1758 -0.56664" />
    <path d="M -11.75013 -0.6338 A 3 0.11414 180 0 0 -11.1758 -0.56664" />
    <path d="M -1.7611 0.92484 L -1.7611 -0.07444" />
    <path d="M 2.42982 0.94996 L 2.42982 -0.04931" />
    <path d="M 10.51539 0.72609 L 10.51539 -0.27319" />
</svg>